<?xml version="1.0" encoding="UTF-8" standalone="no"?>
<!-- Created with Inkscape (http://www.inkscape.org/) -->

<svg
   version="1.1"
   id="svg1"
   width="791.40375"
   height="160.69617"
   viewBox="0 0 791.40375 160.69617"
   sodipodi:docname="confless.svg"
   inkscape:version="1.4 (e7c3feb1, 2024-10-09)"
   xmlns:inkscape="http://www.inkscape.org/namespaces/inkscape"
   xmlns:sodipodi="http://sodipodi.sourceforge.net/DTD/sodipodi-0.dtd"
   xmlns="http://www.w3.org/2000/svg"
   xmlns:svg="http://www.w3.org/2000/svg">
  <defs
     id="defs1" />
  <sodipodi:namedview
     id="namedview1"
     pagecolor="#ffffff"
     bordercolor="#000000"
     borderopacity="0.25"
     inkscape:showpageshadow="2"
     inkscape:pageopacity="0.0"
     inkscape:pagecheckerboard="0"
     inkscape:deskcolor="#d1d1d1"
     inkscape:zoom="0.57215408"
     inkscape:cx="376.64679"
     inkscape:cy="244.68933"
     inkscape:window-width="1512"
     inkscape:window-height="853"
     inkscape:window-x="0"
     inkscape:window-y="38"
     inkscape:window-maximized="1"
     inkscape:current-layer="g1" />
  <g
     inkscape:groupmode="layer"
     inkscape:label="Image"
     id="g1"
     transform="translate(-114.43078,-102.74)">
    <path
       style="fill:#5abad4;fill-opacity:1"
       d="m 260.75222,260.96974 c -6.52435,-3.60104 -13.75182,-8.59765 -15.52263,-10.73134 -1.23849,-1.4923 -0.94036,-2.56852 2.48177,-8.95878 l 3.88936,-7.26273 -3.42425,-6.62191 -3.42425,-6.62192 -9.14301,-0.004 c -10.89212,-0.004 -10.35699,0.69665 -10.35699,-13.56213 0,-11.70418 0.18021,-12.00349 8.73578,-14.50891 3.85729,-1.12958 4.41576,-1.72146 6.25,-6.6239 1.10782,-2.96092 2.01422,-5.63407 2.01422,-5.94033 0,-0.30627 -2.72386,-4.32998 -6.05303,-8.94158 l -6.05302,-8.38474 8.33133,-8.5209 c 4.58223,-4.6865 8.7751,-8.52091 9.3175,-8.52091 0.54239,0 3.80751,2.28286 7.25582,5.07301 l 6.26965,5.07301 6.71588,-3.67764 c 3.69373,-2.0227 6.83013,-3.78232 6.96978,-3.91025 0.13965,-0.12794 0.69905,-3.74351 1.24311,-8.0346 1.3687,-10.79521 0.95385,-10.52353 16.06872,-10.52353 15.4494,0 15.93426,0.3411 15.93426,11.20993 v 6.76493 l 7.25,3.75434 c 3.9875,2.06489 7.51828,3.88497 7.84618,4.04463 0.32789,0.15966 3.07345,-1.74914 6.10122,-4.24177 3.02778,-2.49263 5.96381,-4.53206 6.52452,-4.53206 1.27178,0 15.68298,14.63762 16.0381,16.29008 0.14301,0.66546 -1.53764,3.45992 -3.73478,6.20992 -7.13502,8.93041 -7.50454,10.14393 -5.07012,16.65051 l 2.10225,5.61877 6.85973,1.77918 6.85973,1.77919 0.51611,4.57893 c 0.7174,6.36477 -0.35743,19.00767 -1.68967,19.87509 -0.6068,0.39508 -4.9113,0.94333 -9.56555,1.21833 l -8.46229,0.5 -3.37384,6 -3.37385,6 3.08613,6.26893 c 4.10006,8.32856 3.96571,9.42017 -1.66387,13.51993 -12.29899,8.95676 -18.99225,11.34491 -21.55235,7.68986 -4.74919,-6.78042 -8.64118,-9.84035 -11.92342,-9.37433 -5.16974,0.73402 -12.91643,0.71633 -17.39145,-0.0397 l -4.10767,-0.69399 -5.22366,6.56466 c -5.8962,7.40985 -6.59991,7.60556 -13.55145,3.76874 z m 43.05081,-36.1783 c 20.98639,-8.99951 21.71049,-40.55211 1.1571,-50.42032 -17.39691,-8.3527 -36.06779,0.91486 -39.8572,19.7837 -4.36983,21.75902 18.03722,39.49739 38.7001,30.63662 z M 154.4617,256.20997 c -23.81316,-6.40985 -38.74175,-25.82008 -39.95088,-51.94431 -1.49242,-32.24507 17.99705,-56.21759 49.23695,-60.56266 23.50675,-3.26949 43.95378,8.36944 52.41506,29.83588 2.48256,6.29829 2.38449,6.38318 -9.91061,8.5787 -5.225,0.93302 -10.7023,1.95626 -12.17177,2.27386 -2.2819,0.4932 -2.91913,0.0884 -4.36697,-2.77416 -4.89056,-9.66921 -15.91425,-14.69164 -26.17956,-11.92747 -24.83158,6.68645 -25.87072,51.73877 -1.38248,59.93775 4.77777,1.59965 14.66305,1.41582 18.05007,-0.33568 3.65538,-1.89027 10.05071,-9.33901 10.05071,-11.70622 0,-1.32086 0.75419,-1.81765 2.75,-1.81145 4.7943,0.0149 25.45454,1.99983 26.30843,2.52756 2.36837,1.46373 -5.76805,18.02381 -12.37987,25.19678 -11.04688,11.98446 -34.26905,17.61037 -52.46908,12.71142 z m 476.69001,0.10802 c -17.97546,-4.9577 -31.74571,-18.78922 -37.63213,-37.79958 -2.26371,-7.31072 -2.19046,-26.09327 0.13522,-34.67279 6.65645,-24.55588 26.24344,-39.98371 51.09742,-40.24723 27.88663,-0.29568 47.0598,14.8226 53.07243,41.84825 1.5515,6.97367 1.73884,21.34108 0.29708,22.78284 -0.32913,0.32913 -17.53441,0.59291 -38.23396,0.58617 -43.0148,-0.014 -39.4485,-0.97056 -35.52075,9.5273 6.67886,17.85084 32.31952,22.50458 42.19855,7.65896 l 2.83731,-4.26375 13.41366,0.0914 c 7.37751,0.0503 13.66277,0.4945 13.96724,0.98715 0.30447,0.49264 -1.01135,4.28282 -2.92405,8.4226 -5.89317,12.755 -16.36142,21.40391 -30.30081,25.03466 -6.99431,1.82179 -25.86844,1.84741 -32.40721,0.044 z m 38.41283,-69.80233 c -3.27636,-14.73046 -10.1779,-20.72932 -23.86598,-20.74442 -11.23033,-0.0124 -19.74498,7.5416 -22.81897,20.24442 l -0.66547,2.75 h 23.92543 23.92543 z m 68.46932,69.69706 c -17.56415,-4.25813 -29.17898,-16.47522 -31.45587,-33.08695 l -0.59762,-4.36011 h 14.55647 14.55647 l 0.61287,2.79038 c 1.92099,8.74623 8.52278,13.20962 19.53832,13.20962 10.95992,0 16.52073,-3.22415 17.65903,-10.23869 0.46768,-2.88197 0.07,-4.03375 -2.29275,-6.64045 -2.67197,-2.94786 -3.80504,-3.31826 -17.35856,-5.67459 -22.28636,-3.87455 -28.54031,-6.19084 -35.42713,-13.12123 -5.79334,-5.82998 -7.98392,-11.43235 -7.95494,-20.34459 0.0692,-21.28109 17.19224,-35.21205 43.38207,-35.29477 25.14115,-0.0794 41.40259,10.83339 44.7996,30.06432 l 0.92737,5.25 h -14.36348 -14.36349 v -2.51469 c 0,-11.60353 -26.46052,-15.44459 -30.99426,-4.49917 -3.66071,8.83773 2.085,12.65621 24.68645,16.40611 23.23049,3.85426 32.92093,10.04028 36.67236,23.41027 5.63273,20.07488 -5.86666,38.7735 -27.28336,44.36421 -8.12442,2.12083 -27.08659,2.27142 -35.29955,0.28033 z m 101.71836,-0.33703 c -16.79046,-4.89019 -27.67386,-16.70536 -29.22414,-31.72617 l -0.55567,-5.38386 h 14.51491 14.5149 l 0.61683,3.08416 c 1.63829,8.19142 8.84612,12.85803 19.91529,12.89388 10.09904,0.0327 15.60486,-2.91873 17.08521,-9.15864 1.8444,-7.77444 -2.54566,-10.51695 -22.24465,-13.89642 -18.78922,-3.2234 -25.44474,-5.60885 -31.93851,-11.4473 -12.84387,-11.54775 -13.02204,-32.90104 -0.37691,-45.17273 11.1732,-10.84322 31.83967,-14.71147 51.63276,-9.66438 14.69381,3.74682 23.53951,12.09131 27.13493,25.59744 2.2033,8.27666 3.02852,7.76399 -12.4974,7.76399 h -13.92245 l -1.10657,-3.35295 c -2.18093,-6.60829 -7.83295,-9.92411 -17.00568,-9.97657 -9.86238,-0.0564 -15.04285,3.3287 -15.04285,9.82952 0,6.65448 4.9718,9.48147 21,11.94069 16.90255,2.59338 21.17355,3.6359 27.08664,6.61168 23.50137,11.82713 21.47485,46.6446 -3.42304,58.81093 -11.18377,5.46494 -33.22484,7.01511 -46.1636,3.24673 z m -458.75,-0.88825 -13.75,-0.27822 v -54.99924 -54.99923 l 14.25,0.27745 14.25,0.27746 -0.22006,6.76405 -0.22006,6.76405 5.22307,-5.34979 c 15.01506,-15.37937 43.37363,-12.62166 55.68157,5.41472 6.54894,9.59699 6.50611,9.25407 6.82721,54.65697 l 0.29173,41.25 h -14.4957 -14.4957 l -0.29603,-36.75 c -0.28179,-34.98263 -0.39481,-36.91816 -2.3501,-40.2466 -6.44623,-10.97332 -24.15177,-11.04591 -31.73272,-0.1301 l -3.21321,4.6267 -0.29812,35.99812 c -0.16396,19.79896 -0.61396,36.22396 -1,36.5 -0.38603,0.27603 -6.88938,0.37668 -14.45188,0.22366 z m 182.07978,-0.001 -12.67022,-0.27928 0.2572,-74.97437 c 0.14147,-41.23591 0.54002,-75.25718 0.88566,-75.60283 0.63972,-0.63971 1.79283,-0.66859 18.94758,-0.47453 l 9.75,0.11023 v 75.38342 75.38343 l -2.25,0.36657 c -1.2375,0.20162 -7.9516,0.2409 -14.92022,0.0873 z m -78.82978,-43.17509 v -42.95431 l -6.75,-0.29569 -6.75,-0.29569 -0.28174,-11.75 -0.28173,-11.75 h 7.03173 7.03174 v -7.05259 c 0,-12.38738 2.4771,-20.51974 7.90295,-25.9456 6.4164,-6.4164 11.61733,-8.0826 27.26234,-8.7339 17.53071,-0.7298 18.03527,-0.55612 17.46525,6.01164 -0.2492,2.87125 -0.49301,7.80795 -0.54181,10.97045 l -0.0887,5.75 h -6.85078 c -12.57587,0 -16.14925,2.97619 -16.14925,13.45034 v 5.54966 h 11.5 11.5 v 12 12 h -11.5 -11.5 v 43 43 h -14.5 -14.5 z"
       id="path1" />
  </g>
</svg>
